<svg width="28" height="28" viewBox="0 0 28 28" fill="none" xmlns="http://www.w3.org/2000/svg">
<path d="M17.577 19.5321H10.4233C10.3823 19.532 10.342 19.5432 10.3065 19.5645C10.2709 19.5858 10.2413 19.6165 10.2206 19.6534C10.1999 19.6904 10.1888 19.7324 10.1885 19.7753C10.1881 19.8181 10.1986 19.8603 10.2187 19.8977L10.7351 20.5493H17.2649L17.7813 19.8977C17.8014 19.8604 17.8118 19.8182 17.8115 19.7754C17.8112 19.7325 17.8001 19.6906 17.7795 19.6536C17.7588 19.6166 17.7292 19.5859 17.6937 19.5646C17.6582 19.5433 17.618 19.5321 17.577 19.5321Z" fill="#DFDFDF"/>
<path d="M19.1328 24.1857H8.86721C8.63721 24.1857 8.41663 24.2812 8.254 24.4513C8.09137 24.6215 8 24.8522 8 25.0927H20C20 24.8522 19.9086 24.6215 19.746 24.4513C19.5834 24.2812 19.3628 24.1857 19.1328 24.1857V24.1857Z" fill="#DFDFDF"/>
<path d="M15.7 25.0928H8V25.9998H15.7H20V25.0928H15.7Z" fill="white"/>
<path d="M18.9757 22.0635C18.5429 21.7955 18.1404 21.477 17.7761 21.1142C17.683 21.0216 17.5925 20.9262 17.5046 20.8279C17.4718 20.7895 17.2751 20.5563 17.2751 20.5563H10.7262C10.7262 20.5563 10.5295 20.7895 10.4967 20.8279C10.4093 20.926 10.3188 21.0214 10.2252 21.1142C10.0434 21.2953 9.85197 21.4654 9.6518 21.6238C9.45118 21.7827 9.24211 21.9295 9.02557 22.0635C8.55377 22.3543 8 22.6173 8 23.2792C8.00009 23.5197 8.09149 23.7504 8.25412 23.9204C8.41674 24.0904 8.63727 24.1859 8.86721 24.1859H19.1328C19.3627 24.1859 19.5833 24.0904 19.7459 23.9204C19.9085 23.7504 19.9999 23.5197 20 23.2792C20 22.6173 19.4462 22.3543 18.9757 22.0635Z" fill="white"/>
<path d="M19.0286 7.45748C18.6447 6.46643 18.0117 5.60237 17.1968 4.95677C16.7881 4.63652 16.341 4.37376 15.8669 4.17521C15.4282 3.98934 14.3764 3.73968 14.3764 3.79798V2.16422C14.3765 2.13669 14.3699 2.1096 14.3573 2.08544C14.3447 2.06127 14.3265 2.04082 14.3043 2.02596C14.2822 2.01109 14.2568 2.0023 14.2306 2.00039C14.2043 1.99849 14.178 2.00352 14.1541 2.01504C13.8012 2.18716 13.4925 2.44466 13.2536 2.76626C13.0147 3.08785 12.8523 3.46431 12.78 3.86451V3.8676H12.7781C12.3669 3.8676 12.0774 4.08433 11.8181 4.45059C11.8181 4.45059 9.05741 8.07375 9.05741 8.07409C8.9033 8.26664 8.8132 8.50638 8.8007 8.75715C8.78819 9.00793 8.85396 9.25616 8.98808 9.46444C9.1222 9.67272 9.31741 9.82976 9.54428 9.91189C9.77116 9.99402 10.0174 9.99679 10.2459 9.91979C10.4013 9.62396 10.6127 9.3643 10.867 9.1566C11.1214 8.9489 11.4135 8.7975 11.7256 8.71161C11.806 8.69284 11.8881 8.68341 11.9705 8.68349C12.041 8.68323 12.1112 8.69024 12.1804 8.70441C12.2459 8.71779 12.3049 8.74488 12.3682 8.76203C12.502 8.79884 12.6397 8.81751 12.7781 8.81758C13.1213 8.81737 13.456 8.7052 13.7354 8.4967C14.0148 8.2882 14.2252 7.99374 14.3371 7.65433V7.65639C14.3478 7.79357 14.3533 7.93268 14.3535 8.07375C14.3548 9.03364 14.0958 9.97425 13.6066 10.7864C13.564 10.8471 13.4023 11.0728 13.1656 11.3488C12.641 11.9514 11.9643 12.3776 11.4056 12.9435C10.1944 14.1745 9.48681 15.8488 9.43151 17.6143C9.43151 17.6143 9.43151 17.6143 9.43151 17.616C9.41938 17.8259 9.42528 18.0361 9.42528 18.246C9.42546 18.5284 9.51333 18.803 9.67564 19.0287C9.83795 19.2543 10.0659 19.4187 10.3253 19.4971C10.5007 19.5499 10.8669 19.5313 10.8669 19.5313H17.3079C17.6259 19.5314 17.9311 19.4009 18.158 19.1679C18.3849 18.9348 18.5153 18.618 18.521 18.2855C18.5162 18.213 18.5116 18.1405 18.5072 18.068C18.4846 17.6764 18.4718 17.282 18.4718 16.8845C18.4718 15.4312 18.603 13.8687 18.9259 12.4178C18.9915 12.1218 19.0649 11.8303 19.1466 11.5457C19.5279 10.2154 19.5292 8.75551 19.0286 7.45748Z" fill="white"/>
<path d="M10.8718 19.532H17.3114C17.6294 19.532 17.9347 19.4015 18.1616 19.1685C18.3884 18.9355 18.5188 18.6186 18.5245 18.2861C18.5197 18.2136 18.5151 18.1411 18.5108 18.0687C18.4882 17.677 18.475 17.2827 18.475 16.8852C18.475 15.5419 18.5888 14.1074 18.8596 12.7504C18.4416 14.4016 16.6403 19.497 10.3295 19.497C10.4155 19.5182 10.5034 19.5297 10.5918 19.5313L10.8718 19.532Z" fill="#DFDFDF"/>
<path d="M13.5347 3.7928H14.378V2.16418C14.378 2.16418 13.4249 3.7928 13.5347 3.7928Z" fill="#CACACA"/>
</svg>
