<svg width="120" height="60" viewBox="0 0 120 60" fill="none" xmlns="http://www.w3.org/2000/svg">
<path d="M67.7507 41.5259H52.2509C52.1621 41.5257 52.0748 41.549 51.9978 41.5934C51.9208 41.6377 51.8566 41.7016 51.8118 41.7787C51.7669 41.8557 51.7429 41.9432 51.7422 42.0325C51.7415 42.1218 51.764 42.2097 51.8076 42.2875L52.9265 43.645H67.0744L68.1933 42.2875C68.2368 42.2098 68.2594 42.1219 68.2587 42.0327C68.258 41.9435 68.2341 41.856 68.1893 41.779C68.1445 41.7019 68.0805 41.638 68.0035 41.5936C67.9266 41.5492 67.8394 41.5259 67.7507 41.5259Z" fill="#DFDFDF"/>
<path d="M71.121 51.2212H48.879C48.3806 51.2212 47.9027 51.4203 47.5503 51.7747C47.198 52.1291 47 52.6098 47 53.111H73C73 52.6098 72.802 52.1291 72.4497 51.7747C72.0973 51.4203 71.6194 51.2212 71.121 51.2212V51.2212Z" fill="#DFDFDF"/>
<path d="M63.6833 53.1104H47V55.0001H63.6833H73V53.1104H63.6833Z" fill="#F0F0F0"/>
<path d="M70.7808 46.8002C69.8429 46.2418 68.9709 45.5784 68.1815 44.8226C67.9797 44.6297 67.7837 44.4308 67.5933 44.226C67.5222 44.146 67.096 43.6602 67.096 43.6602H52.9068C52.9068 43.6602 52.4806 44.146 52.4096 44.226C52.2201 44.4304 52.0241 44.6292 51.8214 44.8226C51.4274 45.1998 51.0126 45.5542 50.5789 45.8843C50.1442 46.2152 49.6912 46.521 49.2221 46.8002C48.1998 47.4061 47 47.9541 47 49.333C47.0002 49.8341 47.1982 50.3146 47.5506 50.6689C47.9029 51.0231 48.3808 51.2221 48.879 51.2221H71.121C71.6192 51.2221 72.0971 51.0231 72.4494 50.6689C72.8018 50.3146 72.9998 49.8341 73 49.333C73 47.9541 71.8002 47.4061 70.7808 46.8002Z" fill="#F0F0F0"/>
<path d="M70.8951 16.37C70.0633 14.3052 68.6919 12.5051 66.9262 11.16C66.0407 10.4928 65.072 9.94541 64.0448 9.53177C63.0944 9.14453 60.8154 8.6244 60.8154 8.74586V5.34213C60.8155 5.28478 60.8013 5.22834 60.774 5.178C60.7467 5.12766 60.7072 5.08504 60.6592 5.05408C60.6113 5.02311 60.5563 5.0048 60.4994 5.00082C60.4425 4.99685 60.3856 5.00734 60.3338 5.03133C59.5692 5.38993 58.9004 5.9264 58.3827 6.5964C57.865 7.2664 57.5133 8.0507 57.3566 8.88446V8.89089H57.3523C56.4615 8.89089 55.8342 9.34244 55.2723 10.1055C55.2723 10.1055 49.2909 17.6539 49.2909 17.6546C48.957 18.0557 48.7618 18.5552 48.7347 19.0776C48.7076 19.6001 48.8501 20.1173 49.1407 20.5512C49.4313 20.9851 49.8542 21.3123 50.3458 21.4834C50.8374 21.6545 51.3709 21.6603 51.866 21.4998C52.2028 20.8835 52.6606 20.3426 53.2118 19.9098C53.7629 19.4771 54.3958 19.1617 55.072 18.9828C55.2462 18.9437 55.4242 18.924 55.6027 18.9242C55.7553 18.9236 55.9075 18.9382 56.0573 18.9678C56.1994 18.9956 56.3272 19.0521 56.4644 19.0878C56.7542 19.1645 57.0526 19.2034 57.3523 19.2035C58.096 19.2031 58.8211 18.9694 59.4266 18.535C60.032 18.1006 60.4877 17.4872 60.7302 16.7801V16.7843C60.7534 17.0701 60.7652 17.36 60.7657 17.6539C60.7685 19.6537 60.2074 21.6133 59.1475 23.3053C59.0551 23.4318 58.7049 23.9019 58.192 24.477C57.0554 25.7324 55.5892 26.6204 54.3787 27.7993C51.7545 30.364 50.2213 33.8522 50.1015 37.5304C50.1015 37.5304 50.1015 37.5304 50.1015 37.534C50.0752 37.9712 50.088 38.4092 50.088 38.8464C50.0884 39.4347 50.2787 40.0069 50.6304 40.477C50.9821 40.947 51.4761 41.2895 52.038 41.4528C52.418 41.5629 53.2115 41.5243 53.2115 41.5243H67.167C67.8559 41.5244 68.5173 41.2524 69.0089 40.767C69.5005 40.2815 69.7829 39.6214 69.7954 38.9286C69.785 38.7776 69.775 38.6266 69.7656 38.4756C69.7165 37.6597 69.6888 36.8381 69.6888 36.01C69.6888 32.9821 69.973 29.727 70.6727 26.704C70.8148 26.0875 70.9739 25.4802 71.1508 24.8871C71.977 22.1157 71.9798 19.0742 70.8951 16.37Z" fill="#F0F0F0"/>
<path d="M53.2223 41.5251H67.175C67.8639 41.5252 68.5253 41.2533 69.0169 40.7678C69.5085 40.2824 69.7909 39.6222 69.8034 38.9294C69.793 38.7785 69.783 38.6275 69.7735 38.4765C69.7245 37.6605 69.6961 36.8389 69.6961 36.0108C69.6961 33.2123 69.9426 30.2236 70.5294 27.3965C69.6236 30.8367 65.7208 41.4522 52.0474 41.4522C52.2337 41.4963 52.4242 41.5203 52.6157 41.5237L53.2223 41.5251Z" fill="#DFDFDF"/>
<path d="M58.9918 8.73481H60.8189V5.3418C60.8189 5.3418 58.7538 8.73481 58.9918 8.73481Z" fill="#CACACA"/>
</svg>
