<svg width="120" height="60" viewBox="0 0 120 60" fill="none" xmlns="http://www.w3.org/2000/svg">
<path d="M57.0089 6.00013C51.7978 6.00013 47.1681 9.31061 45.5543 14.1968C43.8982 14.5336 42.3338 15.2145 40.9652 16.1942C39.5967 17.1739 38.4553 18.43 37.617 19.8788C35.0035 24.3352 35.6003 29.9377 39.1016 33.7574C38.0206 36.9568 38.3916 40.4579 40.118 43.355C42.7155 47.8272 47.9421 50.1192 53.0566 49.0527C54.1764 50.2996 55.5528 51.2965 57.0939 51.9772C58.6351 52.6578 60.3057 53.0065 61.9942 52.9999C67.2053 52.9999 71.8351 49.6894 73.4488 44.8032C76.8044 44.1186 79.6923 42.0494 81.3701 39.1213C83.9997 34.6648 83.4029 29.0624 79.9021 25.2426V25.2269C80.4361 23.6454 80.6217 21.9697 80.4464 20.3119C80.2711 18.654 79.7391 17.0522 78.8858 15.6135C76.2876 11.157 71.0605 8.86452 65.9626 9.93098C64.8376 8.68738 63.4576 7.69383 61.914 7.01616C60.3704 6.33849 58.6984 5.99216 57.0089 6.00013ZM57.0089 9.05627L56.9929 9.07206C59.0903 9.07206 61.107 9.78829 62.7202 11.1097C62.6556 11.1412 62.5264 11.2208 62.4298 11.2687L52.944 16.6642C52.4598 16.9349 52.1694 17.4441 52.1694 18.0013V30.6703L48.0878 28.3467V17.8739C48.0869 15.5378 49.026 13.2969 50.6987 11.6435C52.3714 9.99003 54.641 9.05985 57.0089 9.05627ZM68.4361 12.7446C70.0081 12.7416 71.553 13.1481 72.9147 13.923C74.2763 14.6979 75.4065 15.8137 76.191 17.1576C77.2234 18.9403 77.6104 21.0253 77.2554 23.0466C77.1908 22.9986 77.0622 22.9355 76.981 22.8875L67.4952 17.4757C67.2565 17.3426 66.987 17.2726 66.7129 17.2726C66.4387 17.2726 66.1692 17.3426 65.9306 17.4757L54.8149 23.8102V19.1625L63.9944 13.9261C65.3441 13.1541 66.876 12.7464 68.4361 12.744V12.7446ZM44.9741 17.5552V28.6806C44.9741 29.2378 45.2645 29.7313 45.7487 30.0177L56.8477 36.3364L52.7496 38.6757L43.5861 33.4551C41.5383 32.2843 40.0451 30.3596 39.4342 28.1037C38.8233 25.8477 39.1447 23.4448 40.3278 21.4223C41.3714 19.6376 43.0152 18.2699 44.9741 17.5552ZM66.237 20.3085L75.4164 25.5291C79.6918 27.9643 81.1432 33.344 78.6748 37.5619L78.6908 37.5777C77.6424 39.3604 75.9967 40.7291 74.0445 41.4296V30.3037C74.0445 29.7465 73.7541 29.2372 73.2699 28.9671L62.1549 22.6321L66.237 20.3085ZM59.4933 24.1446L64.1722 26.8184V32.1501L59.4933 34.8239L54.8149 32.1501V26.8184L59.4933 24.1446ZM66.8498 28.3467L70.9313 30.6703V41.1273C70.9313 45.9977 66.9304 49.9449 62.0102 49.9449V49.9291C59.9289 49.9291 57.8961 49.2129 56.2989 47.8921C56.3635 47.8605 56.5087 47.7804 56.5893 47.7325L66.0752 42.337C66.5594 42.0663 66.8658 41.557 66.8492 40.9999L66.8498 28.3467ZM64.1876 35.1904V39.8375L55.0082 45.0582C50.7328 47.4776 45.2799 46.0451 42.8116 41.843H42.8276C41.7792 40.0761 41.4076 37.9753 41.7626 35.954C41.8272 36.002 41.9564 36.0651 42.037 36.1131L51.5228 41.5249C51.7615 41.6581 52.031 41.728 52.3051 41.728C52.5793 41.728 52.8488 41.6581 53.0874 41.5249L64.1876 35.1904Z" fill="white"/>
</svg>
